<?xml version="1.0" encoding="utf-8"?>
<svg xmlns="http://www.w3.org/2000/svg" viewBox="0 0 500 250" width="500px" height="250px" xmlns:bx="https://boxy-svg.com"><defs><style>@import url(https://fonts.googleapis.com/css2?family=JetBrains+Mono%3Aital%2Cwght%400%2C100..800%3B1%2C100..800&amp;display=swap);</style></defs><g id="object-0" transform="matrix(1, 0, 0, 1, -2.842170943040401e-14, 0)"><rect style="fill: rgb(216, 216, 216);" x="0" y="0" width="500" height="250" rx="16" ry="16"/><rect style="fill: rgb(47, 47, 47);" width="496" height="246" rx="16" ry="16" x="2" y="1"/><path d="M 104.71 109.97 Q 102.99 109.97 101.71 109.32 Q 100.42 108.67 99.72 107.44 Q 99.02 106.2 99.02 104.51 L 99.02 100.61 Q 99.02 98.9 99.72 97.68 Q 100.42 96.45 101.71 95.8 Q 102.99 95.15 104.71 95.15 Q 107.18 95.15 108.69 96.48 Q 110.2 97.81 110.27 100.09 L 107.93 100.09 Q 107.86 98.72 107.01 97.98 Q 106.17 97.23 104.71 97.23 Q 103.18 97.23 102.27 98.11 Q 101.36 98.98 101.36 100.59 L 101.36 104.51 Q 101.36 106.13 102.27 107.01 Q 103.18 107.89 104.71 107.89 Q 106.17 107.89 107.01 107.14 Q 107.86 106.39 107.93 105.03 L 110.27 105.03 Q 110.2 107.32 108.69 108.65 Q 107.18 109.97 104.71 109.97 Z M 120.2 109.92 Q 118.48 109.92 117.24 109.27 Q 115.99 108.62 115.3 107.39 Q 114.61 106.15 114.61 104.46 L 114.61 100.67 Q 114.61 98.95 115.3 97.73 Q 115.99 96.51 117.24 95.86 Q 118.48 95.21 120.2 95.21 Q 121.92 95.21 123.16 95.86 Q 124.41 96.51 125.1 97.73 Q 125.79 98.95 125.79 100.64 L 125.79 104.46 Q 125.79 106.15 125.1 107.39 Q 124.41 108.62 123.16 109.27 Q 121.92 109.92 120.2 109.92 Z M 120.2 107.84 Q 121.73 107.84 122.59 106.98 Q 123.45 106.13 123.45 104.46 L 123.45 100.67 Q 123.45 99 122.59 98.14 Q 121.73 97.29 120.2 97.29 Q 118.69 97.29 117.82 98.14 Q 116.95 99 116.95 100.67 L 116.95 104.46 Q 116.95 106.13 117.82 106.98 Q 118.69 107.84 120.2 107.84 Z M 137.75 109.71 Q 136.5 109.71 135.57 109.22 Q 134.63 108.73 134.11 107.82 Q 133.59 106.91 133.59 105.68 L 133.59 92.87 L 128.78 92.87 L 128.78 90.73 L 135.93 90.73 L 135.93 105.68 Q 135.93 106.57 136.43 107.08 Q 136.92 107.58 137.75 107.58 L 142.3 107.58 L 142.3 109.71 Z M 153.35 109.71 Q 152.1 109.71 151.17 109.22 Q 150.23 108.73 149.71 107.82 Q 149.19 106.91 149.19 105.68 L 149.19 92.87 L 144.38 92.87 L 144.38 90.73 L 151.53 90.73 L 151.53 105.68 Q 151.53 106.57 152.03 107.08 Q 152.52 107.58 153.35 107.58 L 157.9 107.58 L 157.9 109.71 Z M 167 109.97 Q 165.31 109.97 164.05 109.3 Q 162.79 108.62 162.1 107.39 Q 161.41 106.15 161.41 104.51 L 161.41 100.61 Q 161.41 98.95 162.1 97.73 Q 162.79 96.51 164.05 95.83 Q 165.31 95.15 167 95.15 Q 168.69 95.15 169.96 95.83 Q 171.22 96.51 171.91 97.73 Q 172.59 98.95 172.59 100.61 L 172.59 103.14 L 163.7 103.14 L 163.7 104.51 Q 163.7 106.2 164.56 107.1 Q 165.42 108 167 108 Q 168.36 108 169.19 107.52 Q 170.02 107.04 170.2 106.07 L 172.54 106.07 Q 172.31 107.87 170.79 108.92 Q 169.27 109.97 167 109.97 Z M 170.31 101.58 L 170.31 100.61 Q 170.31 98.92 169.46 98.01 Q 168.62 97.1 167 97.1 Q 165.42 97.1 164.56 98.01 Q 163.7 98.92 163.7 100.61 L 163.7 101.37 L 170.49 101.37 Z M 182.7 109.97 Q 180.99 109.97 179.7 109.32 Q 178.41 108.67 177.71 107.44 Q 177.01 106.2 177.01 104.51 L 177.01 100.61 Q 177.01 98.9 177.71 97.68 Q 178.41 96.45 179.7 95.8 Q 180.99 95.15 182.7 95.15 Q 185.17 95.15 186.68 96.48 Q 188.19 97.81 188.27 100.09 L 185.93 100.09 Q 185.85 98.72 185 97.98 Q 184.16 97.23 182.7 97.23 Q 181.17 97.23 180.26 98.11 Q 179.35 98.98 179.35 100.59 L 179.35 104.51 Q 179.35 106.13 180.26 107.01 Q 181.17 107.89 182.7 107.89 Q 184.16 107.89 185 107.14 Q 185.85 106.39 185.93 105.03 L 188.27 105.03 Q 188.19 107.32 186.68 108.65 Q 185.17 109.97 182.7 109.97 Z M 199.76 109.71 Q 197.91 109.71 196.89 108.73 Q 195.86 107.74 195.86 105.94 L 195.86 97.55 L 191.83 97.55 L 191.83 95.41 L 195.86 95.41 L 195.86 91.38 L 198.2 91.38 L 198.2 95.41 L 203.92 95.41 L 203.92 97.55 L 198.2 97.55 L 198.2 105.94 Q 198.2 107.58 199.76 107.58 L 203.66 107.58 L 203.66 109.71 Z" transform="matrix(1, 0, 0, 1, -57.406349, -1.35426)" style="fill: rgb(232, 82, 225); text-wrap-mode: nowrap;"/><path d="M 218.62 112.83 Q 214.93 111.92 212.87 109.25 Q 210.82 106.57 210.82 102.69 L 210.82 98.01 Q 210.82 95.47 211.77 93.4 Q 212.72 91.33 214.47 89.9 Q 216.23 88.47 218.62 87.87 L 218.62 90.08 Q 216.96 90.47 215.73 91.58 Q 214.51 92.68 213.84 94.32 Q 213.16 95.96 213.16 98.01 L 213.16 102.69 Q 213.16 104.7 213.82 106.33 Q 214.49 107.97 215.72 109.05 Q 216.96 110.13 218.62 110.52 Z M 226.93 112.57 L 226.93 88.13 L 233.3 88.13 L 233.3 90.21 L 229.27 90.21 L 229.27 110.49 L 233.3 110.49 L 233.3 112.57 Z" transform="matrix(1, 0, 0, 1, -57.406349, -1.35426)" style="fill: rgb(93, 93, 93); text-wrap-mode: nowrap;"/><path d="M 239.55 109.71 L 239.55 107.58 L 244.7 107.58 L 244.7 92.68 L 239.55 96.53 L 239.55 93.93 L 243.84 90.73 L 247.04 90.73 L 247.04 107.58 L 251.25 107.58 L 251.25 109.71 Z" transform="matrix(1, 0, 0, 1, -57.406349, -1.35426)" style="fill: rgb(110, 243, 126); text-wrap-mode: nowrap;"/><path d="M 257.1 113.87 L 259.18 105.79 L 262.56 105.79 L 259.18 113.87 Z" transform="matrix(1, 0, 0, 1, -57.406349, -1.35426)" style="fill: rgb(93, 93, 93); text-wrap-mode: nowrap;"/><path transform="matrix(1, 0, 0, 1, -57.406349, -1.35426)" style="fill: rgb(74, 74, 74); text-wrap-mode: nowrap;"/><path d="M 286.41 109.71 L 286.41 107.32 L 292.21 101.16 Q 293.69 99.57 294.36 98.34 Q 295.04 97.1 295.04 95.96 Q 295.04 94.37 294.17 93.46 Q 293.3 92.55 291.79 92.55 Q 290.13 92.55 289.18 93.49 Q 288.23 94.43 288.23 96.06 L 285.89 96.06 Q 285.94 94.35 286.68 93.09 Q 287.42 91.83 288.74 91.15 Q 290.05 90.47 291.79 90.47 Q 293.51 90.47 294.77 91.14 Q 296.03 91.8 296.7 93.02 Q 297.38 94.24 297.38 95.93 Q 297.38 97.55 296.52 99.13 Q 295.66 100.72 293.71 102.75 L 289.03 107.58 L 297.69 107.58 L 297.69 109.71 Z" transform="matrix(1, 0, 0, 1, -57.406349, -1.35426)" style="fill: rgb(110, 243, 126); text-wrap-mode: nowrap;"/><path d="M 303.91 113.87 L 305.99 105.79 L 309.37 105.79 L 305.99 113.87 Z" transform="matrix(1, 0, 0, 1, -57.406349, -1.35426)" style="fill: rgb(93, 93, 93); text-wrap-mode: nowrap;"/><path transform="matrix(1, 0, 0, 1, -57.406349, -1.35426)" style="fill: rgb(74, 74, 74); text-wrap-mode: nowrap;"/><path d="M 333.21 109.71 L 333.21 95.41 L 335.55 95.41 L 335.55 98.14 L 336.05 98.14 L 335.55 98.69 Q 335.55 97 336.57 96.08 Q 337.58 95.15 339.38 95.15 Q 341.53 95.15 342.81 96.48 Q 344.08 97.81 344.08 100.09 L 344.08 109.71 L 341.74 109.71 L 341.74 100.35 Q 341.74 98.82 340.92 98 Q 340.1 97.18 338.7 97.18 Q 337.24 97.18 336.4 98.07 Q 335.55 98.95 335.55 100.61 L 335.55 109.71 Z M 354.19 109.97 Q 351.72 109.97 350.24 108.51 Q 348.76 107.04 348.76 104.51 L 348.76 95.41 L 351.1 95.41 L 351.1 104.51 Q 351.1 106.13 351.93 107.02 Q 352.76 107.92 354.19 107.92 Q 355.65 107.92 356.49 107.02 Q 357.34 106.13 357.34 104.51 L 357.34 95.41 L 359.68 95.41 L 359.68 104.51 Q 359.68 107.04 358.17 108.51 Q 356.66 109.97 354.19 109.97 Z M 371.77 109.71 Q 370.52 109.71 369.58 109.22 Q 368.65 108.73 368.13 107.82 Q 367.61 106.91 367.61 105.68 L 367.61 92.87 L 362.8 92.87 L 362.8 90.73 L 369.95 90.73 L 369.95 105.68 Q 369.95 106.57 370.44 107.08 Q 370.93 107.58 371.77 107.58 L 376.32 107.58 L 376.32 109.71 Z M 387.37 109.71 Q 386.12 109.71 385.18 109.22 Q 384.25 108.73 383.73 107.82 Q 383.21 106.91 383.21 105.68 L 383.21 92.87 L 378.4 92.87 L 378.4 90.73 L 385.55 90.73 L 385.55 105.68 Q 385.55 106.57 386.04 107.08 Q 386.54 107.58 387.37 107.58 L 391.92 107.58 L 391.92 109.71 Z" transform="matrix(1, 0, 0, 1, -57.406349, -1.35426)" style="fill: rgb(248, 104, 104); text-wrap-mode: nowrap;"/><path d="M 397.52 113.87 L 399.6 105.79 L 402.98 105.79 L 399.6 113.87 Z" transform="matrix(1, 0, 0, 1, -57.406349, -1.35426)" style="fill: rgb(93, 93, 93); text-wrap-mode: nowrap;"/><path transform="matrix(1, 0, 0, 1, -57.406349, -1.35426)" style="fill: rgb(74, 74, 74); text-wrap-mode: nowrap;"/><path d="M 435.09 109.71 L 435.09 105.55 L 426.51 105.55 L 426.51 101.89 L 434.02 90.73 L 436.57 90.73 L 428.85 102.38 L 428.85 103.42 L 435.09 103.42 L 435.09 98.79 L 437.43 98.79 L 437.43 109.71 Z" transform="matrix(1, 0, 0, 1, -57.406349, -1.35426)" style="fill: rgb(110, 243, 126); text-wrap-mode: nowrap;"/><path d="M 444.32 113.87 L 446.4 105.79 L 449.78 105.79 L 446.4 113.87 Z" transform="matrix(1, 0, 0, 1, -57.406349, -1.35426)" style="fill: rgb(93, 93, 93); text-wrap-mode: nowrap;"/><path transform="matrix(1, 0, 0, 1, -57.406349, -1.35426)" style="fill: rgb(74, 74, 74); text-wrap-mode: nowrap;"/><path d="M 478.98 109.97 Q 476.67 109.97 475.19 108.78 Q 473.71 107.58 473.45 105.55 L 475.79 105.55 Q 475.92 106.67 476.75 107.28 Q 477.58 107.89 479.01 107.89 Q 480.65 107.89 481.47 107.01 Q 482.29 106.13 482.29 104.51 L 482.29 102.67 Q 482.29 101.06 481.47 100.17 Q 480.65 99.29 479.04 99.29 Q 478.02 99.29 477.27 99.82 Q 476.51 100.35 476.18 101.24 L 473.84 101.24 L 473.97 90.73 L 483.95 90.73 L 483.95 92.87 L 476.23 92.87 L 476.15 99.18 L 476.88 99.18 L 476.15 99.86 Q 476.15 98.64 477.12 97.94 Q 478.1 97.23 479.74 97.23 Q 482.05 97.21 483.34 98.65 Q 484.63 100.09 484.63 102.67 L 484.63 104.51 Q 484.63 107.04 483.14 108.51 Q 481.66 109.97 478.98 109.97 Z" transform="matrix(1, 0, 0, 1, -57.406349, -1.35426)" style="fill: rgb(110, 243, 126); text-wrap-mode: nowrap;"/><path d="M 490.74 112.57 L 490.74 110.49 L 494.77 110.49 L 494.77 90.21 L 490.74 90.21 L 490.74 88.13 L 497.11 88.13 L 497.11 112.57 Z M 505.42 112.83 L 505.42 110.52 Q 507.11 110.13 508.33 109.05 Q 509.55 107.97 510.22 106.33 Q 510.88 104.7 510.88 102.69 L 510.88 98.01 Q 510.88 95.96 510.2 94.32 Q 509.53 92.68 508.31 91.58 Q 507.08 90.47 505.42 90.08 L 505.42 87.87 Q 507.84 88.47 509.58 89.9 Q 511.32 91.33 512.27 93.4 Q 513.22 95.47 513.22 98.01 L 513.22 102.69 Q 513.22 106.57 511.17 109.25 Q 509.11 111.92 505.42 112.83 Z" transform="matrix(1, 0, 0, 1, -57.406349, -1.35426)" style="fill: rgb(93, 93, 93); text-wrap-mode: nowrap;"/><path transform="matrix(1, 0, 0, 1, -57.406349, -1.35426)" style="fill: rgb(74, 74, 74); text-wrap-mode: nowrap;"/><path transform="matrix(1, 0, 0, 1, -57.406349, -1.35426)" style="fill: rgb(74, 74, 74); text-wrap-mode: nowrap;"/><path transform="matrix(1, 0, 0, 1, -57.406349, -1.35426)" style="fill: rgb(74, 74, 74); text-wrap-mode: nowrap;"/><path transform="matrix(1, 0, 0, 1, -57.406349, -1.35426)" style="fill: rgb(74, 74, 74); text-wrap-mode: nowrap;"/><path transform="matrix(1, 0, 0, 1, -57.406349, -1.35426)" style="fill: rgb(74, 74, 74); text-wrap-mode: nowrap;"/><path d="M 210.89 171.46 L 213.65 171.46 L 219.65 179.13 L 213.62 186.8 L 210.89 186.8 L 215.83 180.59 Q 215.91 180.49 216 180.38 Q 216.09 180.28 216.17 180.17 L 192.61 180.17 L 192.61 178.09 L 216.17 178.09 Q 216.06 177.96 215.96 177.83 Q 215.86 177.7 215.73 177.57 Z" transform="matrix(1, 0, 0, 1, -57.406349, -1.35426)" style="fill: rgb(93, 93, 93); text-wrap-mode: nowrap;"/><path d="M 223.82 187.71 L 223.82 185.58 L 228.89 185.58 L 228.89 175.55 L 224.47 175.55 L 224.47 173.41 L 231.23 173.41 L 231.23 185.58 L 236.04 185.58 L 236.04 187.71 Z M 229.8 170.84 Q 228.94 170.84 228.45 170.4 Q 227.95 169.96 227.95 169.2 Q 227.95 168.42 228.45 167.97 Q 228.94 167.51 229.8 167.51 Q 230.66 167.51 231.15 167.97 Q 231.65 168.42 231.65 169.2 Q 231.65 169.96 231.15 170.4 Q 230.66 170.84 229.8 170.84 Z M 239.6 187.71 L 239.6 173.41 L 241.94 173.41 L 241.94 176.14 L 242.43 176.14 L 241.94 176.69 Q 241.94 175 242.95 174.08 Q 243.96 173.15 245.76 173.15 Q 247.92 173.15 249.19 174.48 Q 250.46 175.81 250.46 178.09 L 250.46 187.71 L 248.12 187.71 L 248.12 178.35 Q 248.12 176.82 247.31 176 Q 246.49 175.18 245.08 175.18 Q 243.63 175.18 242.78 176.07 Q 241.94 176.95 241.94 178.61 L 241.94 187.71 Z M 262.17 187.71 Q 260.32 187.71 259.29 186.73 Q 258.27 185.74 258.27 183.94 L 258.27 175.55 L 254.24 175.55 L 254.24 173.41 L 258.27 173.41 L 258.27 169.38 L 260.61 169.38 L 260.61 173.41 L 266.33 173.41 L 266.33 175.55 L 260.61 175.55 L 260.61 183.94 Q 260.61 185.58 262.17 185.58 L 266.07 185.58 L 266.07 187.71 Z M 276.21 187.97 Q 274.52 187.97 273.26 187.3 Q 272 186.62 271.31 185.39 Q 270.62 184.15 270.62 182.51 L 270.62 178.61 Q 270.62 176.95 271.31 175.73 Q 272 174.51 273.26 173.83 Q 274.52 173.15 276.21 173.15 Q 277.9 173.15 279.16 173.83 Q 280.42 174.51 281.11 175.73 Q 281.8 176.95 281.8 178.61 L 281.8 181.14 L 272.91 181.14 L 272.91 182.51 Q 272.91 184.2 273.76 185.1 Q 274.62 186 276.21 186 Q 277.56 186 278.39 185.52 Q 279.22 185.04 279.41 184.07 L 281.75 184.07 Q 281.51 185.87 279.99 186.92 Q 278.47 187.97 276.21 187.97 Z M 279.51 179.58 L 279.51 178.61 Q 279.51 176.92 278.66 176.01 Q 277.82 175.1 276.21 175.1 Q 274.62 175.1 273.76 176.01 Q 272.91 176.92 272.91 178.61 L 272.91 179.37 L 279.69 179.37 Z M 286.9 187.71 L 286.9 173.41 L 289.18 173.41 L 289.18 176.14 L 289.73 176.14 L 288.98 177.83 Q 288.98 175.52 289.98 174.34 Q 290.98 173.15 292.95 173.15 Q 295.22 173.15 296.55 174.57 Q 297.89 175.99 297.89 178.41 L 297.89 179.26 L 295.55 179.26 L 295.55 178.61 Q 295.55 176.92 294.73 176.03 Q 293.92 175.13 292.41 175.13 Q 290.93 175.13 290.08 176.04 Q 289.24 176.95 289.24 178.61 L 289.24 187.71 Z M 301.99 192.39 L 301.99 173.41 L 304.33 173.41 L 304.33 176.14 L 304.8 176.14 L 304.33 176.69 Q 304.33 175.05 305.41 174.1 Q 306.49 173.15 308.26 173.15 Q 310.42 173.15 311.71 174.57 Q 312.99 175.99 312.99 178.46 L 312.99 182.64 Q 312.99 184.28 312.41 185.48 Q 311.82 186.67 310.77 187.32 Q 309.72 187.97 308.26 187.97 Q 306.52 187.97 305.43 187.01 Q 304.33 186.05 304.33 184.44 L 304.8 184.98 L 304.28 184.98 L 304.33 188.23 L 304.33 192.39 Z M 307.48 185.95 Q 308.96 185.95 309.81 185.06 Q 310.65 184.18 310.65 182.51 L 310.65 178.61 Q 310.65 176.95 309.81 176.07 Q 308.96 175.18 307.48 175.18 Q 306.05 175.18 305.19 176.09 Q 304.33 177 304.33 178.61 L 304.33 182.51 Q 304.33 184.13 305.19 185.04 Q 306.05 185.95 307.48 185.95 Z M 323 187.92 Q 321.29 187.92 320.04 187.27 Q 318.79 186.62 318.1 185.39 Q 317.41 184.15 317.41 182.46 L 317.41 178.67 Q 317.41 176.95 318.1 175.73 Q 318.79 174.51 320.04 173.86 Q 321.29 173.21 323 173.21 Q 324.72 173.21 325.97 173.86 Q 327.22 174.51 327.91 175.73 Q 328.59 176.95 328.59 178.64 L 328.59 182.46 Q 328.59 184.15 327.91 185.39 Q 327.22 186.62 325.97 187.27 Q 324.72 187.92 323 187.92 Z M 323 185.84 Q 324.54 185.84 325.4 184.98 Q 326.25 184.13 326.25 182.46 L 326.25 178.67 Q 326.25 177 325.4 176.14 Q 324.54 175.29 323 175.29 Q 321.5 175.29 320.63 176.14 Q 319.75 177 319.75 178.67 L 319.75 182.46 Q 319.75 184.13 320.63 184.98 Q 321.5 185.84 323 185.84 Z M 340.56 187.71 Q 339.31 187.71 338.37 187.22 Q 337.44 186.73 336.92 185.82 Q 336.4 184.91 336.4 183.68 L 336.4 170.87 L 331.59 170.87 L 331.59 168.73 L 338.74 168.73 L 338.74 183.68 Q 338.74 184.57 339.23 185.08 Q 339.72 185.58 340.56 185.58 L 345.11 185.58 L 345.11 187.71 Z M 352.96 187.97 Q 350.7 187.97 349.4 186.82 Q 348.1 185.66 348.1 183.68 Q 348.1 181.68 349.4 180.54 Q 350.7 179.39 352.91 179.39 L 357.33 179.39 L 357.33 177.96 Q 357.33 176.64 356.53 175.92 Q 355.74 175.21 354.29 175.21 Q 353.01 175.21 352.15 175.74 Q 351.3 176.27 351.17 177.18 L 348.83 177.18 Q 349.06 175.34 350.57 174.25 Q 352.08 173.15 354.34 173.15 Q 356.81 173.15 358.24 174.43 Q 359.67 175.7 359.67 177.89 L 359.67 187.71 L 357.38 187.71 L 357.38 184.98 L 356.99 184.98 L 357.38 184.59 Q 357.38 186.15 356.17 187.06 Q 354.96 187.97 352.96 187.97 Z M 353.53 186.13 Q 355.2 186.13 356.26 185.3 Q 357.33 184.46 357.33 183.16 L 357.33 181.14 L 352.96 181.14 Q 351.79 181.14 351.11 181.79 Q 350.44 182.44 350.44 183.55 Q 350.44 184.75 351.26 185.44 Q 352.08 186.13 353.53 186.13 Z M 371.37 187.71 Q 369.52 187.71 368.5 186.73 Q 367.47 185.74 367.47 183.94 L 367.47 175.55 L 363.44 175.55 L 363.44 173.41 L 367.47 173.41 L 367.47 169.38 L 369.81 169.38 L 369.81 173.41 L 375.53 173.41 L 375.53 175.55 L 369.81 175.55 L 369.81 183.94 Q 369.81 185.58 371.37 185.58 L 375.27 185.58 L 375.27 187.71 Z M 385.4 187.97 Q 383.71 187.97 382.45 187.3 Q 381.19 186.62 380.5 185.39 Q 379.81 184.15 379.81 182.51 L 379.81 178.61 Q 379.81 176.95 380.5 175.73 Q 381.19 174.51 382.45 173.83 Q 383.71 173.15 385.4 173.15 Q 387.09 173.15 388.35 173.83 Q 389.61 174.51 390.3 175.73 Q 390.99 176.95 390.99 178.61 L 390.99 181.14 L 382.1 181.14 L 382.1 182.51 Q 382.1 184.2 382.96 185.1 Q 383.82 186 385.4 186 Q 386.75 186 387.59 185.52 Q 388.42 185.04 388.6 184.07 L 390.94 184.07 Q 390.71 185.87 389.19 186.92 Q 387.66 187.97 385.4 187.97 Z M 388.7 179.58 L 388.7 178.61 Q 388.7 176.92 387.86 176.01 Q 387.01 175.1 385.4 175.1 Q 383.82 175.1 382.96 176.01 Q 382.1 176.92 382.1 178.61 L 382.1 179.37 L 388.89 179.37 Z" transform="matrix(1, 0, 0, 1, -57.406349, -1.35426)" style="fill: rgb(232, 82, 225); text-wrap-mode: nowrap;"/><path d="M 405.82 190.83 Q 402.13 189.92 400.08 187.25 Q 398.02 184.57 398.02 180.69 L 398.02 176.01 Q 398.02 173.47 398.97 171.4 Q 399.92 169.33 401.68 167.9 Q 403.43 166.47 405.82 165.87 L 405.82 168.08 Q 404.16 168.47 402.94 169.58 Q 401.71 170.68 401.04 172.32 Q 400.36 173.96 400.36 176.01 L 400.36 180.69 Q 400.36 182.7 401.03 184.33 Q 401.69 185.97 402.92 187.05 Q 404.16 188.13 405.82 188.52 Z M 411.8 190.83 L 411.8 188.52 Q 413.49 188.13 414.71 187.05 Q 415.93 185.97 416.59 184.33 Q 417.26 182.7 417.26 180.69 L 417.26 176.01 Q 417.26 173.96 416.58 172.32 Q 415.9 170.68 414.68 169.58 Q 413.46 168.47 411.8 168.08 L 411.8 165.87 Q 414.21 166.47 415.96 167.9 Q 417.7 169.33 418.65 171.4 Q 419.6 173.47 419.6 176.01 L 419.6 180.69 Q 419.6 184.57 417.54 187.25 Q 415.49 189.92 411.8 190.83 Z" transform="matrix(1, 0, 0, 1, -57.406349, -1.35426)" style="fill: rgb(93, 93, 93); text-wrap-mode: nowrap;"/></g></svg>